HIERARCHY
ROOT Hips
{
  OFFSET 59.9703 92.7258 6.3843
  CHANNELS 6 Xposition Yposition Zposition Zrotation Xrotation Yrotation
  JOINT spine
  {
    OFFSET 0 7.4756 0.429885
    CHANNELS 3 Zrotation Xrotation Yrotation
    JOINT spine1
    {
      OFFSET 0 9.92301 0
      CHANNELS 3 Zrotation Xrotation Yrotation
      JOINT spine2
      {
        OFFSET 0 9.50804 0
        CHANNELS 3 Zrotation Xrotation Yrotation
        JOINT Neck
        {
          OFFSET 0 24.4111 1.16384
          CHANNELS 3 Zrotation Xrotation Yrotation
          JOINT Head
          {
            OFFSET 0 7.37523 0
            CHANNELS 3 Zrotation Xrotation Yrotation
            End Site
            {
              OFFSET 0 17.8522 -5.88741
            }
          }
        }
        JOINT RightShoulder
        {
          OFFSET -4.00356 10.2679 -0.557468
          CHANNELS 3 Zrotation Xrotation Yrotation
          JOINT RightArm
          {
            OFFSET 0 13.4673 0
            CHANNELS 3 Zrotation Xrotation Yrotation
            JOINT RightArmRoll
            {
              OFFSET 0 6.79858 0
              CHANNELS 3 Zrotation Xrotation Yrotation
              JOINT RightForeArm
              {
                OFFSET 0 19.8018 0
                CHANNELS 3 Zrotation Xrotation Yrotation
                JOINT RightForeArmRoll
                {
                  OFFSET 0 7.62905 0
                  CHANNELS 3 Zrotation Xrotation Yrotation
                  JOINT RightHand
                  {
                    OFFSET 0 15.3098 0
                    CHANNELS 3 Zrotation Xrotation Yrotation
                    End Site
                    {
                      OFFSET 0 0 0
                    }
                  }
                }
              }
            }
          }
        }
        JOINT LeftShoulder
        {
          OFFSET 4.00356 10.2679 -0.557468
          CHANNELS 3 Zrotation Xrotation Yrotation
          JOINT LeftArm
          {
            OFFSET 0 13.4673 0
            CHANNELS 3 Zrotation Xrotation Yrotation
            JOINT LeftArmRoll
            {
              OFFSET 0 6.79858 0
              CHANNELS 3 Zrotation Xrotation Yrotation
              JOINT LeftForeArm
              {
                OFFSET 0 19.8018 0
                CHANNELS 3 Zrotation Xrotation Yrotation
                JOINT LeftForeArmRoll
                {
                  OFFSET 0 7.62905 0
                  CHANNELS 3 Zrotation Xrotation Yrotation
                  JOINT LeftHand
                  {
                    OFFSET 0 15.3098 0
                    CHANNELS 3 Zrotation Xrotation Yrotation
                    End Site
                    {
                      OFFSET 0 0 0
                    }
                  }
                }
              }
            }
          }
        }
      }
    }
  }
  JOINT RightUpLeg
  {
    OFFSET -6.62609 -1.21505 -1.01927
    CHANNELS 3 Zrotation Xrotation Yrotation
    JOINT RightUpLegRoll
    {
      OFFSET 0 17.9517 0
      CHANNELS 3 Zrotation Xrotation Yrotation
      JOINT RightLeg
      {
        OFFSET 0 -22.2304 0
        CHANNELS 3 Zrotation Xrotation Yrotation
        JOINT RightLegRoll
        {
          OFFSET 0 22.3032 0
          CHANNELS 3 Zrotation Xrotation Yrotation
          JOINT RightFoot
          {
            OFFSET 0 18.5636 0
            CHANNELS 3 Zrotation Xrotation Yrotation
            JOINT RightToeBase
            {
              OFFSET 0 15.5183 0
              CHANNELS 3 Zrotation Xrotation Yrotation
              End Site
              {
                OFFSET 0.00657761 7.51538 -0.866263
              }
            }
          }
        }
      }
    }
  }
  JOINT LeftUpLeg
  {
    OFFSET 6.62609 -1.21505 -1.01927
    CHANNELS 3 Zrotation Xrotation Yrotation
    JOINT LeftUpLegRoll
    {
      OFFSET 0 17.9518 0
      CHANNELS 3 Zrotation Xrotation Yrotation
      JOINT LeftLeg
      {
        OFFSET 0 22.2303 0
        CHANNELS 3 Zrotation Xrotation Yrotation
        JOINT LeftLegRoll
        {
          OFFSET 0 22.5093 0
          CHANNELS 3 Zrotation Xrotation Yrotation
          JOINT LeftFoot
          {
            OFFSET 0 18.3575 0
            CHANNELS 3 Zrotation Xrotation Yrotation
            JOINT LeftToeBase
            {
              OFFSET 0 15.5183 0
              CHANNELS 3 Zrotation Xrotation Yrotation
              End Site
              {
                OFFSET -0.029478 7.51539 -0.866263
              }
            }
          }
        }
      }
    }
  }
}
MOTION
Frames: 9
Frame Time: 0.00208333
58.8177 92.5423 7.02147 1.76298 -4.81607 0.562309 -0.244427 -1.71802 -0.147345 -0.491704 0.567318 -0.270263 -0.488325 2.21234 -0.2621 -11.1255 19.2316 -0.950221 11.8282 8.75331 -4.2695 5.6945 -15.1217 -14.3946 12.3708 25.9551 105.347 -9.1139e-007 -1.96982e-006 8.0932e-006 3.71077 55.511 -0.142905 -6.97132e-006 2.03272e-006 -3.00775 8.03024 -4.95135 0.697641 -28.871 -16.7238 13.4166 9.72662 32.4884 -86.4059 1.04442e-006 4.86951e-007 -1.46574e-006 5.60192 38.1763 -2.44412 1.04411e-006 2.73832e-006 3.00001 -8.03025 -4.95139 -0.697655 171.472 9.02917 5.88219 180 7.01547e-015 178.921 176.465 28.4918 179.929 1.14055e-006 -6.38286e-006 0.440187 -19.1313 68.4465 19.9123 8.19782 30.0713 -0.647861 175.369 1.13642 4.79098 4.54188e-006 -4.6773e-006 -1.13361 -4.22036 -10.8879 -0.158122 -2.08359e-006 -2.56809e-006 -0.157117 21.7324 70.7498 -22.1921 -8.13649 25.2327 3.48774 
58.8186 92.5488 7.03529 1.75841 -4.82281 0.564385 -0.243438 -1.71918 -0.148827 -0.489588 0.565 -0.273341 -0.486123 2.21002 -0.265209 -11.1337 19.219 -0.934599 11.8315 8.74983 -4.25458 5.7635 -15.1111 -14.3663 12.6103 26.0443 105.046 -9.1139e-007 -1.96982e-006 8.0932e-006 3.50086 55.2378 -0.0600298 -6.97132e-006 2.03272e-006 -3.00774 8.03024 -4.95135 0.697641 -28.9837 -16.6993 13.3758 9.59827 32.4963 -86.1743 1.04442e-006 4.86951e-007 -1.46574e-006 5.56325 37.82 -2.3835 1.04411e-006 2.73832e-006 3.00001 -8.03025 -4.95139 -0.697655 171.472 9.01997 5.88644 180 7.01547e-015 178.922 176.459 28.494 179.931 1.14055e-006 -6.38286e-006 0.440242 -19.132 68.4473 19.913 8.19764 30.0656 -0.648988 175.373 1.128 4.78654 4.54188e-006 -4.6773e-006 -1.13395 -4.22155 -10.8888 -0.158395 -2.08359e-006 -2.56809e-006 -0.157131 21.7352 70.7514 -22.194 -8.13649 25.2327 3.48774 
58.8075 92.5609 7.07851 1.75383 -4.82955 0.566472 -0.242471 -1.72034 -0.150372 -0.48751 0.562692 -0.27654 -0.48396 2.20772 -0.26844 -11.1413 19.2056 -0.919075 11.8345 8.74673 -4.23951 5.83458 -15.1002 -14.3373 12.8491 26.1319 104.744 -9.1139e-007 -1.96982e-006 8.0932e-006 3.29005 54.9562 0.0215625 -6.97132e-006 2.03272e-006 -3.00774 8.03024 -4.95135 0.697641 -29.0961 -16.6748 13.3352 9.46883 32.5048 -85.9429 1.04442e-006 4.86951e-007 -1.46574e-006 5.5244 37.46 -2.32311 1.04411e-006 2.73832e-006 3.00001 -8.03025 -4.95139 -0.697655 171.472 9.01086 5.89039 180 7.01547e-015 178.922 176.453 28.4962 179.933 1.14055e-006 -6.38286e-006 0.440296 -19.1327 68.4479 19.9135 8.19744 30.0601 -0.650016 175.378 1.11964 4.78205 4.54188e-006 -4.6773e-006 -1.13429 -4.22279 -10.8898 -0.15868 -2.08359e-006 -2.56809e-006 -0.157144 21.738 70.7531 -22.1959 -8.13649 25.2327 3.48774 
58.8133 92.5543 7.06863 1.74926 -4.83636 0.568504 -0.241544 -1.72146 -0.151967 -0.485503 0.56045 -0.279837 -0.481872 2.20547 -0.271767 -11.148 19.1912 -0.903756 11.837 8.74409 -4.22433 5.9083 -15.0891 -14.3075 13.0859 26.2179 104.442 -9.1139e-007 -1.96982e-006 8.0932e-006 3.07727 54.6646 0.102368 -6.97132e-006 2.03272e-006 -3.00773 8.03024 -4.95135 0.697641 -29.2071 -16.6507 13.2952 9.33801 32.5145 -85.7125 1.04442e-006 4.86951e-007 -1.46574e-006 5.48551 37.0962 -2.26314 1.04411e-006 2.73832e-006 3.00001 -8.03025 -4.95139 -0.697655 171.473 9.00176 5.89403 180 7.01547e-015 178.922 176.447 28.4984 179.935 1.14055e-006 -6.38286e-006 0.440351 -19.1333 68.4485 19.914 8.19725 30.0546 -0.65093 175.383 1.11117 4.77751 4.54188e-006 -4.6773e-006 -1.13463 -4.22408 -10.8908 -0.158969 -2.08359e-006 -2.56809e-006 -0.157156 21.7406 70.7547 -22.1979 -8.13649 25.2327 3.48774 
58.8146 92.5547 7.07846 1.74471 -4.84332 0.570412 -0.240672 -1.72252 -0.153603 -0.483601 0.55833 -0.283207 -0.479893 2.20335 -0.275165 -11.1535 19.1757 -0.888751 11.8391 8.74197 -4.20909 5.98521 -15.0777 -14.277 13.3196 26.3021 104.141 -9.1139e-007 -1.96982e-006 8.0932e-006 2.8615 54.3609 0.182857 -6.97132e-006 2.03272e-006 -3.00773 8.03024 -4.95135 0.697641 -29.3158 -16.6271 13.2562 9.20546 32.5258 -85.4836 1.04442e-006 4.86951e-007 -1.46574e-006 5.4467 36.7286 -2.20374 1.04411e-006 2.73832e-006 3.00001 -8.03025 -4.95139 -0.697655 171.473 8.99264 5.89737 180 7.01547e-015 178.922 176.442 28.5004 179.936 1.14055e-006 -6.38286e-006 0.440406 -19.1339 68.449 19.9145 8.19704 30.0491 -0.651715 175.388 1.10244 4.77293 4.54188e-006 -4.6773e-006 -1.13497 -4.22541 -10.8916 -0.159256 -2.08359e-006 -2.56809e-006 -0.157168 21.7431 70.7563 -22.1997 -8.13649 25.2327 3.48774 
58.816 92.5587 7.08304 1.7402 -4.85052 0.572128 -0.239874 -1.7235 -0.155266 -0.481836 0.556388 -0.286626 -0.478059 2.20141 -0.27861 -11.1578 19.159 -0.874169 11.8406 8.74047 -4.19383 6.06589 -15.0661 -14.2457 13.5489 26.3845 103.843 -9.1139e-007 -1.96982e-006 8.0932e-006 2.64173 54.0435 0.263473 -6.97132e-006 2.03272e-006 -3.00772 8.03024 -4.95135 0.697641 -29.4215 -16.6043 13.2186 9.0708 32.5394 -85.2565 1.04442e-006 4.86951e-007 -1.46574e-006 5.4081 36.3574 -2.14507 1.04411e-006 2.73832e-006 3.00001 -8.03025 -4.95139 -0.697655 171.474 8.98342 5.9004 180 7.01547e-015 178.922 176.437 28.5025 179.938 1.14055e-006 -6.38286e-006 0.440462 -19.1344 68.4495 19.9148 8.19683 30.0435 -0.652358 175.393 1.09329 4.7683 4.54188e-006 -4.6773e-006 -1.13529 -4.2268 -10.892 -0.159535 -2.08359e-006 -2.56809e-006 -0.15718 21.7451 70.7577 -22.2013 -8.13649 25.2327 3.48774 
58.8178 92.5611 7.09474 1.73575 -4.85802 0.573585 -0.239165 -1.72435 -0.156946 -0.480244 0.55468 -0.290069 -0.476406 2.1997 -0.282076 -11.1605 19.1407 -0.860119 11.8417 8.73966 -4.17858 6.1509 -15.0544 -14.2137 13.7725 26.4652 103.548 -9.1139e-007 -1.96982e-006 8.0932e-006 2.41699 53.7104 0.344634 -6.97132e-006 2.03272e-006 -3.00772 8.03024 -4.95135 0.697641 -29.523 -16.5826 13.1826 8.9337 32.5558 -85.0319 1.04442e-006 4.86951e-007 -1.46574e-006 5.36983 35.9825 -2.08731 1.04411e-006 2.73832e-006 3.00001 -8.03025 -4.95139 -0.697655 171.475 8.97406 5.90312 180 7.01547e-015 178.922 176.432 28.5045 179.939 1.14055e-006 -6.38286e-006 0.440518 -19.1348 68.4499 19.9152 8.19661 30.0377 -0.652842 175.398 1.08357 4.76363 4.54188e-006 -4.6773e-006 -1.13561 -4.22825 -10.8921 -0.159798 -2.08359e-006 -2.56809e-006 -0.157191 21.7467 70.7589 -22.2027 -8.13649 25.2327 3.48774 
58.8183 92.5588 7.10002 1.73136 -4.86591 0.574715 -0.238562 -1.72507 -0.158632 -0.478856 0.553262 -0.29351 -0.474967 2.19828 -0.285539 -11.1615 19.1209 -0.84671 11.8422 8.73961 -4.16341 6.2408 -15.0426 -14.1809 13.9893 26.544 103.258 -9.1139e-007 -1.96982e-006 8.0932e-006 2.18636 53.3599 0.426732 -6.97132e-006 2.03272e-006 -3.00772 8.03024 -4.95135 0.697641 -29.6195 -16.5621 13.1488 8.79376 32.5756 -84.8103 1.04442e-006 4.86951e-007 -1.46574e-006 5.33201 35.6039 -2.03059 1.04411e-006 2.73832e-006 3.00001 -8.03025 -4.95139 -0.697655 171.476 8.9645 5.90552 180 7.01547e-015 178.922 176.428 28.5065 179.94 1.14055e-006 -6.38286e-006 0.440574 -19.1353 68.4503 19.9155 8.19639 30.0317 -0.653154 175.403 1.07312 4.75892 4.54188e-006 -4.6773e-006 -1.1359 -4.22975 -10.8917 -0.160039 -2.08359e-006 -2.56809e-006 -0.157201 21.7476 70.7598 -22.2037 -8.13649 25.2327 3.48774 
58.8311 92.5486 7.05398 1.72705 -4.87368 0.575764 -0.238034 -1.7257 -0.160405 -0.477588 0.551999 -0.297121 -0.473657 2.19702 -0.289167 -11.1618 19.0984 -0.833489 11.8429 8.74088 -4.14813 6.33427 -15.0312 -14.1483 14.2008 26.6213 102.972 -9.1139e-007 -1.96982e-006 8.0932e-006 1.94654 52.9871 0.511085 -6.97132e-006 2.03272e-006 -3.00771 8.03024 -4.95135 0.697641 -29.7117 -16.5431 13.1173 8.65088 32.5985 -84.5885 1.04442e-006 4.86951e-007 -1.46574e-006 5.29342 35.22 -1.97412 1.04411e-006 2.73832e-006 3.00001 -8.03025 -4.95139 -0.697655 171.477 8.95533 5.90773 180 7.01547e-015 178.922 176.425 28.5086 179.941 1.14055e-006 -6.38286e-006 0.440631 -19.1356 68.4506 19.9157 8.19615 30.0254 -0.653368 175.408 1.06267 4.75422 4.54188e-006 -4.6773e-006 -1.13619 -4.23135 -10.891 -0.160275 -2.08359e-006 -2.56809e-006 -0.157219 21.7482 70.7605 -22.2045 -8.13649 25.2327 3.48774 
